<?xml version="1.0" encoding="utf-8"?>
<!-- Generator: Adobe Illustrator 24.2.0, SVG Export Plug-In . SVG Version: 6.00 Build 0)  -->
<svg version="1.1" id="Layer_1" xmlns="http://www.w3.org/2000/svg" xmlns:xlink="http://www.w3.org/1999/xlink" x="0px" y="0px"
	 width="97.8px" height="96px" viewBox="0 0 97.8 96" style="enable-background:new 0 0 97.8 96;" xml:space="preserve">
<style type="text/css">
	.st0{display:none;}
	.st1{display:inline;}
	.st2{fill:#FFFFFF;}
</style>
<g class="st0">
	<g class="st1">
		<path d="M82,0c0.9,2.4,1.8,4.8,3,8c2,0,4.7,0.1,7.5,0c3.7-0.1,5.5,1.5,5.5,5.3c0,25.8,0,51.6,0,77.5c0,3.9-1.9,5.3-5.6,5.3
			c-27-0.1-54,0-81,0c-3,0-5.4-0.8-5.4-4.3c0-13.2,0-26.3,0-39.4c0.6-0.2,1.2-0.3,1.8-0.5c0.7,2,2.1,4,2.1,6
			C10.1,69,10,80.2,10,91.7c28,0,55.7,0,83.7,0c0-20.4,0-40.8,0-61.5c-11.1,0-22,0-32.9,0c-0.7-4-0.7-4.1,2.8-4.1
			c10,0,19.9,0,30.2,0c0-4.7,0-8.9,0-13.6c-2.9,0-6,0-9.6,0c0.1,4.2-0.5,8-6.5,7.7c-5.6-0.2-5.9-3.7-5.7-7.4
			c-6-2.5-13.1,2.3-19.2-4.5c7.1,0,12.9,0,18.2,0c1.2-3.2,2.1-5.7,3-8.2C76.7,0,79.3,0,82,0z M79.9,3.5c-1.7,0.7-3.6,1.1-3.6,1.6
			c-0.2,3.4,0,6.9,0.3,10.4c0,0.2,2.1,0.2,3.3,0.4C79.9,11.7,79.9,8.2,79.9,3.5z"/>
		<path d="M0,23c1.8-4.1,3.5-8.1,5.5-12.6C4.9,10.3,4,10.3,3.3,9.9C2.4,9.5,1.7,8.7,0.9,8c1-0.7,1.9-1.8,2.9-1.9
			C6.9,5.9,10.1,6,14,6c0,3.3,0.2,6.4-0.1,9.4c-0.1,1.2-1.1,2.4-1.7,3.6c-0.7-1.2-1.6-2.4-2.2-3.6c-0.3-0.5-0.2-1.2-0.2-2
			C-1.4,25,4.6,45.5,20.3,50.8c9.8,3.3,20.5,0,26.8-8.2c6.1-8,6.5-19.1,1-27.6C42.5,6.3,32.1,2.2,22,4.8c-0.8,0.2-1.6,0.7-2.4,0.6
			c-1.2,0-2.3-0.4-3.4-0.7c0.8-1,1.4-2.3,2.4-3.1s2.3-1.1,3.4-1.7c3.7,0,7.3,0,11,0c1.2,0.5,2.4,0.9,3.7,1.4
			c12.6,4.3,20.5,16.4,19.2,29.4C54.6,43.9,44,54.5,30.8,55.9c-13,1.3-25.1-6.6-29.4-19.2C0.9,35.4,0.5,34.2,0,33
			C0,29.7,0,26.3,0,23z"/>
		<path d="M22.2,83.7c0-8.1,0-15.9,0-23.7c5.5-1,3.1,3.2,4.2,5.7c2.8,0,5.9,0,9.1,0c1.9-2-1.9-7.2,4.3-7.5c0.1,2.4,0.3,4.8,0.4,7.5
			c3.1,0,6.1,0,9.7,0c0-4.4,0-8.8,0-13.5c4.8,0,9.1,0,13.7,0c0-3.4,0-6.5,0-9.9c-2-0.1-4.1-0.3-6.2-0.4c-0.2-0.4-0.4-0.8-0.6-1.2
			c1.5-0.9,2.9-2.4,4.5-2.5c6.6-0.3,13.3-0.1,20.3-0.1c0,15.2,0,30.3,0,45.7C62,83.7,42.3,83.7,22.2,83.7z M77.7,51.8
			c0-3.5,0-6.4,0-9.5c-3.3,0-6.3,0-9.4,0c0,3.4,0,6.4,0,9.5C71.6,51.8,74.5,51.8,77.7,51.8z M54.2,65.6c3.6,0,6.6,0,9.6,0
			c0-3.3,0-6.2,0-9.3c-3.3,0-6.3,0-9.6,0C54.2,59.5,54.2,62.4,54.2,65.6z M68.4,56.2c0,3.5,0,6.5,0,9.4c3.4,0,6.5,0,9.4,0
			c0-3.3,0-6.3,0-9.4C74.5,56.2,71.6,56.2,68.4,56.2z M26.4,70.2c0,3.5,0,6.5,0,9.4c3.4,0,6.5,0,9.4,0c0-3.3,0-6.3,0-9.4
			C32.5,70.2,29.6,70.2,26.4,70.2z M49.6,79.8c0-3.6,0-6.6,0-9.6c-3.3,0-6.2,0-9.3,0c0,3.3,0,6.3,0,9.6
			C43.5,79.8,46.4,79.8,49.6,79.8z M63.7,79.9c0-3.5,0-6.5,0-9.5c-3.4,0-6.4,0-9.3,0c0,3.4,0,6.5,0,9.5
			C57.6,79.9,60.4,79.9,63.7,79.9z M77.7,79.9c0-3.5,0-6.5,0-9.5c-3.4,0-6.4,0-9.3,0c0,3.4,0,6.5,0,9.5
			C71.6,79.9,74.4,79.9,77.7,79.9z"/>
		<path d="M26,20.9c0-3.5-0.2-5.8,0.1-8.1c0.1-0.9,1.1-1.8,1.7-2.7c0.7,0.9,2,1.7,2.1,2.7c0.3,2.4,0.4,5,0.1,7.4
			c-0.6,4.8,0.8,8.2,5.2,10.7c1.2,0.7,1.6,2.7,2.4,4.1c-1.6-0.3-3.3-0.4-4.7-1C26.7,31.2,24.6,26.3,26,20.9z"/>
	</g>
</g>
<g>
	<path class="st2" d="M87.9,7.6H73.5V4.1c0-2.3-1.8-4.1-4.1-4.1c-2.3,0-4.1,1.8-4.1,4.1v3.5H32.6V4.1c0-2.3-1.8-4.1-4.1-4.1
		s-4.1,1.8-4.1,4.1v3.5H9.9C4.5,7.6,0,12.1,0,17.5v68.5C0,91.5,4.5,96,9.9,96h77.9c5.5,0,9.9-4.5,9.9-9.9V17.5
		C97.8,12.1,93.4,7.6,87.9,7.6z M28.4,23.4c2.3,0,4.1-1.8,4.1-4.1v-3.5h32.6v3.5c0,2.3,1.8,4.1,4.1,4.1c2.3,0,4.1-1.8,4.1-4.1v-3.5
		h14.6c0.9,0,1.7,0.8,1.7,1.7v10.6H8.2V17.5c0-0.9,0.8-1.7,1.7-1.7h14.4v3.5C24.3,21.5,26.1,23.4,28.4,23.4z M89.5,86.1
		c0,0.4-0.1,0.8-0.4,1.2c-0.3,0.4-0.8,0.6-1.2,0.6H9.9c-0.9,0-1.7-0.8-1.7-1.7V36.3h81.3L89.5,86.1z"/>
	<path class="st2" d="M48.9,73.6c6.4,0,11.6-5.2,11.6-11.6s-5.2-11.6-11.6-11.6c-6.4,0-11.6,5.2-11.6,11.6S42.5,73.6,48.9,73.6z"/>
</g>
</svg>
